# xmcd
#
# Track frame offsets: 
#        150
#        17069
#        31100
#        51097
#        68199
#        88701
#        106420
#        119487
#        132442
#        151105
#
# Disc length: 2295 seconds
#
# Revision: 1
# Processed by: cddbd v1.5.2PL0 Copyright (c) Steve Scherf et al.
# Submitted via: ExactAudioCopyFreeDBPlugin 1.0
#
DISCID=7d08f50a
DTITLE=Eric Steckel - Milestone
DYEAR=2010
DGENRE=Blues
TTITLE0=Sooner Or Later
TTITLE1=Shaolin Fade
TTITLE2=2 Little, 2 Late
TTITLE3=I Love The Way You Make Me Hate You
TTITLE4=While My Guitar Gently Weeps
TTITLE5=I Don't Mind
TTITLE6=I'll Still Come Around
TTITLE7=Put Me Down
TTITLE8=It's Tax Deductible!
TTITLE9=Show The World
EXTD=
EXTT0=
EXTT1=
EXTT2=
EXTT3=
EXTT4=
EXTT5=
EXTT6=
EXTT7=
EXTT8=
EXTT9=
PLAYORDER=
